<svg xmlns="http://www.w3.org/2000/svg" viewBox="0 0 128 144">
  <defs><linearGradient id="t" x1="0" y1="0" x2="1" y2="1"><stop stop-color="#b9f2ff"/><stop offset=".5" stop-color="#3f91c8"/><stop offset="1" stop-color="#173667"/></linearGradient></defs>
  <path d="M64 4 116 23v43c0 34-20 58-52 74C32 124 12 100 12 66V23Z" fill="#0b1420" stroke="url(#t)" stroke-width="6"/>
  <path d="M24 75c17-25 33-30 49-16 9 8 19 8 31-1-3 28-19 46-43 54-19-8-31-20-37-37Z" fill="url(#t)"/>
  <path d="M25 81c18-15 33-16 46-4 10 9 20 8 31-2M34 96c13-8 25-7 35 2 8 7 16 7 24 2" fill="none" stroke="#c6f4ff" stroke-width="5" stroke-linecap="round"/>
  <circle cx="44" cy="48" r="8" fill="#79cce9"/>
</svg>
